<?xml version="1.0" standalone="no"?>
<!DOCTYPE svg PUBLIC "-//W3C//DTD SVG 20010904//EN"
 "http://www.w3.org/TR/2001/REC-SVG-20010904/DTD/svg10.dtd">
<svg version="1.0" xmlns="http://www.w3.org/2000/svg"
 width="260.000000pt" height="260.000000pt" viewBox="0 0 260.000000 260.000000"
 preserveAspectRatio="xMidYMid meet">
<metadata>
Created by potrace 1.14, written by Peter Selinger 2001-2017
</metadata>
<g transform="translate(0.000000,260.000000) scale(0.100000,-0.100000)"
fill="#000000" stroke="none">
<path d="M368 2406 c-95 -26 -164 -95 -194 -192 -21 -71 -21 -1257 1 -1330 18
-60 51 -107 102 -143 77 -56 63 -55 693 -61 l584 -5 206 -265 c226 -290 255
-317 334 -307 47 7 92 47 106 96 5 20 10 138 10 262 l0 226 38 7 c83 13 178
105 203 198 6 24 9 272 7 680 -3 641 -3 643 -25 684 -36 67 -70 101 -131 131
l-57 28 -915 2 c-717 1 -925 -1 -962 -11z m1904 -118 c32 -19 52 -41 67 -71
21 -43 21 -54 21 -665 0 -414 -4 -630 -11 -649 -13 -34 -55 -80 -91 -99 -15
-8 -54 -14 -88 -14 l-60 0 0 -276 c0 -271 -5 -314 -33 -314 -21 0 -76 63 -262
305 -98 127 -190 242 -203 258 l-26 27 -598 0 c-644 0 -625 -1 -675 52 -54 57
-53 49 -53 704 0 425 3 618 11 645 14 47 64 96 115 114 32 12 191 14 939 12
l900 -2 47 -27z"/>
<path d="M583 2005 c-17 -7 -36 -22 -41 -32 -14 -27 239 -851 269 -875 15 -13
39 -18 80 -18 97 0 91 -13 234 459 70 227 124 419 121 427 -8 20 -50 44 -89
51 -26 4 -39 1 -53 -14 -12 -12 -53 -141 -114 -360 -52 -188 -96 -340 -98
-339 -2 2 -47 160 -101 351 -55 191 -105 351 -112 356 -20 13 -59 10 -96 -6z"/>
<path d="M1367 2003 c-16 -18 -17 -56 -17 -451 0 -472 -2 -453 60 -467 34 -7
67 1 93 23 15 13 17 36 17 189 l0 173 53 0 52 0 82 -163 c113 -222 116 -227
154 -227 41 0 85 27 99 60 10 24 3 42 -74 184 -47 87 -86 161 -86 166 0 5 9
12 21 15 33 11 88 65 112 109 32 59 32 213 0 271 -28 52 -57 79 -118 107 -45
21 -68 23 -240 26 -177 4 -191 2 -208 -15z m394 -171 c25 -28 29 -40 29 -95 0
-107 -41 -137 -185 -137 l-85 0 0 136 0 136 106 -4 c105 -3 106 -3 135 -36z"/>
</g>
</svg>
